<svg width="19" height="23" viewBox="0 0 19 23" fill="none" xmlns="http://www.w3.org/2000/svg">
<path d="M11.2607 1.2613C11.2607 0.82388 10.9764 0.43722 10.5589 0.30679C10.1413 0.176364 9.68754 0.33245 9.43854 0.69209L0.438552 13.6921C0.226842 13.9979 0.202342 14.3959 0.374962 14.7254C0.547592 15.0548 0.888802 15.2613 1.26074 15.2613H7.26074V21.2613C7.26074 21.6987 7.54504 22.0854 7.96254 22.2158C8.38014 22.3462 8.83394 22.1901 9.08294 21.8305L18.0829 8.83051C18.2946 8.5247 18.3191 8.12666 18.1465 7.7972C17.9739 7.46774 17.6326 7.2613 17.2607 7.2613H11.2607V1.2613Z" fill="#11151C"/>
</svg>
