<svg width="40" height="40" viewBox="0 0 40 40" fill="none" xmlns="http://www.w3.org/2000/svg">
<path d="M0 20C0 8.95431 8.95431 0 20 0C31.0457 0 40 8.95431 40 20C40 31.0457 31.0457 40 20 40C8.95431 40 0 31.0457 0 20Z" fill="#FAFAFA" fill-opacity="0.08"/>
<path d="M21.7781 10.3275L21.5841 17.5349L28.3913 15.168L29.6482 19.0792L22.7365 21.121L27.1174 26.902L23.7332 29.2287L19.6821 23.3251L15.5695 29.2368L12.2475 26.8199L16.642 21.1013L9.74431 19.0152L11.0249 15.1118L17.8175 17.5228L17.67 10.32L21.7781 10.3275Z" fill="#FAFAFA"/>
</svg>
